<?xml version="1.0" encoding="UTF-8" standalone="no"?>
<!-- Created with Inkscape (http://www.inkscape.org/) -->

<svg
   xmlns:dc="http://purl.org/dc/elements/1.1/"
   xmlns:cc="http://creativecommons.org/ns#"
   xmlns:rdf="http://www.w3.org/1999/02/22-rdf-syntax-ns#"
   xmlns:svg="http://www.w3.org/2000/svg"
   xmlns="http://www.w3.org/2000/svg"
   xmlns:sodipodi="http://sodipodi.sourceforge.net/DTD/sodipodi-0.dtd"
   xmlns:inkscape="http://www.inkscape.org/namespaces/inkscape"
   width="512"
   height="512"
   viewBox="0 0 135.46666 135.46667"
   version="1.1"
   id="svg8"
   inkscape:version="0.92.1 r15371"
   sodipodi:docname="general_android.svg">
  <defs
     id="defs2" />
  <sodipodi:namedview
     id="base"
     pagecolor="#000000"
     bordercolor="#666666"
     borderopacity="1.0"
     inkscape:pageopacity="0"
     inkscape:pageshadow="2"
     inkscape:zoom="0.49497475"
     inkscape:cx="77.889098"
     inkscape:cy="222.78098"
     inkscape:document-units="mm"
     inkscape:current-layer="layer1"
     showgrid="false"
     units="px"
     inkscape:window-width="1366"
     inkscape:window-height="713"
     inkscape:window-x="0"
     inkscape:window-y="27"
     inkscape:window-maximized="1"
     inkscape:pagecheckerboard="true" />
  <metadata
     id="metadata5">
    <rdf:RDF>
      <cc:Work
         rdf:about="">
        <dc:format>image/svg+xml</dc:format>
        <dc:type
           rdf:resource="http://purl.org/dc/dcmitype/StillImage" />
        <dc:title></dc:title>
      </cc:Work>
    </rdf:RDF>
  </metadata>
  <g
     inkscape:groupmode="layer"
     id="layer2"
     inkscape:label="Layer 2" />
  <g
     inkscape:label="Layer 1"
     inkscape:groupmode="layer"
     id="layer1"
     transform="translate(0,-161.53332)">
    <path
       inkscape:connector-curvature="0"
       id="path4513"
       style="font-style:normal;font-variant:normal;font-weight:normal;font-stretch:normal;font-size:medium;line-height:1.25;font-family:Amienne;-inkscape-font-specification:Amienne;letter-spacing:0px;word-spacing:0px;fill:#000000;fill-opacity:1;stroke:none;stroke-width:2.67778111"
       d="m 40.69109,193.33082 q 1.499558,0 2.249336,0.21422 0.749779,0.21423 1.820891,0.53556 -0.964001,5.46267 -1.928002,11.13957 -0.964001,5.56978 -0.964001,11.03246 0,4.82 0.85689,9.31868 0.85689,4.49867 3.106226,8.46178 5.14134,-7.17645 8.783122,-15.10268 3.748893,-8.03334 4.391561,-16.38802 0.214222,0 0.749779,0 0.535556,-0.10711 1.178223,-0.10711 3.213338,0 4.820006,0.74978 -1.392446,4.07022 -3.748893,10.4969 -2.249336,6.31956 -3.534671,13.92446 -0.428445,2.892 -0.85689,6.6409 -0.428445,3.74889 -0.428445,7.81912 0,3.53467 0.428445,6.85512 0.428445,3.32045 1.606668,5.89112 1.178224,2.67778 3.106226,4.49867 2.035114,1.82089 5.14134,2.35645 1.606669,0 3.42756,-1.07112 1.820891,-0.964 3.641782,-2.46356 1.820891,-1.39244 3.42756,-3.10622 1.71378,-1.71378 2.999115,-2.99912 -3.320449,5.46268 -6.748008,8.14046 -3.42756,2.78489 -7.604899,2.99911 -3.213337,0 -5.891118,-1.49955 -2.57067,-1.49956 -4.391561,-3.96312 -1.820891,-2.35645 -2.892004,-5.35556 -0.964001,-2.99912 -0.964001,-5.99823 0,-3.10623 0.535556,-7.81912 0.535556,-4.82001 0.964001,-9.74713 -0.321333,0.64267 -1.178223,1.8209 -0.749779,1.17822 -1.71378,2.46355 -0.964001,1.28534 -2.035114,2.35645 -0.964001,1.07111 -1.606669,1.39245 -2.892003,-0.10711 -4.820006,-2.14223 -1.928002,-2.03511 -3.213337,-4.82 -1.178224,-2.89201 -1.71378,-5.99823 -0.535556,-3.21334 -0.642667,-5.46268 -1.392446,5.46268 -3.213338,12.53202 -1.820891,6.96223 -4.070227,13.71024 -2.249336,6.74801 -4.927117,12.31779 -2.57067,5.56979 -5.569785,8.24757 1.285335,-2.46356 2.999115,-7.17646 1.606669,-4.71289 3.42756,-10.81823 1.820891,-6.10534 3.748893,-13.06757 1.928003,-7.06935 3.748894,-14.2458 1.820891,-7.17645 3.534671,-14.03157 1.71378,-6.85512 3.106226,-12.53202 z" />
    <path
       inkscape:connector-curvature="0"
       id="path4515"
       style="font-style:normal;font-variant:normal;font-weight:normal;font-stretch:normal;font-size:medium;line-height:1.25;font-family:Amienne;-inkscape-font-specification:Amienne;letter-spacing:0px;word-spacing:0px;fill:#000000;fill-opacity:1;stroke:none;stroke-width:2.67778111"
       d="m 64.330875,237.03221 q 2.035114,0 3.106226,1.39245 1.071112,1.39244 1.071112,2.892 0,2.35645 -1.285335,4.60578 -0.964001,1.92801 -2.142224,3.85601 -1.071113,1.82089 -1.71378,3.96311 -2.356448,-1.07111 -2.356448,-4.92711 0,-1.60667 0.321334,-3.21334 0.428445,-1.60667 0.964001,-2.99912 0.642668,-1.82089 1.285335,-3.21333 0.642668,-1.49956 0.749779,-2.35645 z" />
    <path
       inkscape:connector-curvature="0"
       id="path4517"
       style="font-style:normal;font-variant:normal;font-weight:normal;font-stretch:normal;font-size:medium;line-height:1.25;font-family:Amienne;-inkscape-font-specification:Amienne;letter-spacing:0px;word-spacing:0px;fill:#000000;fill-opacity:1;stroke:none;stroke-width:2.67778111"
       d="m 104.84403,194.83038 q 4.92712,0 8.03334,2.14222 3.10623,2.14223 3.32045,6.21246 -1.71378,-1.49956 -4.17734,-2.14223 -2.35644,-0.64267 -5.24845,-0.64267 -5.14134,0 -9.425786,1.49956 -4.177338,1.49956 -7.390675,4.17734 -3.641783,3.10623 -5.99823,7.39068 -2.249336,4.17733 -3.106226,9.10445 -0.107111,0.53556 -0.107111,1.07111 0,0.42845 0,0.85689 0,4.39157 2.892003,7.17646 2.892004,2.67778 7.176453,4.60578 2.677782,1.28534 5.569785,2.24934 2.999115,0.964 5.784007,1.82089 2.892,0.85689 5.24845,1.71378 2.46356,0.85689 4.07023,1.928 -0.10711,0.64267 -1.60667,2.03511 -1.49956,1.28534 -4.28445,2.99912 -2.78489,1.60667 -6.748008,3.32045 -3.963116,1.71378 -8.997345,2.892 -3.534671,0.85689 -7.604898,1.39245 -4.070227,0.53555 -8.676011,0.53555 -3.534671,0 -5.355562,-1.49955 -1.928002,-1.39245 -2.677781,-3.96312 0.85689,0.64267 2.356447,0.85689 1.499558,0.32133 3.42756,0.32133 3.748894,0 7.926232,-0.42844 4.177339,-0.42845 8.247566,-1.28534 8.140454,-1.49955 14.03157,-4.60578 -2.249333,-1.928 -5.784004,-3.32045 -3.534671,-1.49956 -7.283565,-3.64178 -1.928002,-1.17822 -3.748893,-2.57067 -1.71378,-1.49956 -3.106227,-3.42756 -1.285334,-1.928 -2.142224,-4.39156 -0.749779,-2.57067 -0.749779,-5.78401 0,-4.92712 2.249336,-10.28268 2.356447,-5.35556 6.426675,-9.85423 3.427559,-3.7489 7.81912,-6.10534 4.498673,-2.35645 9.640011,-2.35645 z" />
  </g>
</svg>
